<svg xmlns="http://www.w3.org/2000/svg" width="1440" height="242"><defs><filter id="a" width="138.8%" height="147.4%" x="-19.4%" y="-23.7%" filterUnits="objectBoundingBox"><feGaussianBlur in="SourceGraphic" stdDeviation="50"/></filter></defs><path fill="#F472B6" fill-opacity=".8" fill-rule="evenodd" d="M1359.186 408.733c-20.336 4.89-40.242 13.095-58.957 24.789l-18.54 11.586c-18.715 11.694-34.815 25.988-48.126 42.122-14.353 41.567-42.499 78.676-82.696 103.795l-18.32 11.447c-93.298 58.299-216.19 29.927-274.49-63.37-58.298-93.298-29.926-216.191 63.371-274.49l18.32-11.448c93.261-58.276 216.095-29.948 274.422 63.263l-.068-.11c-32.852-52.573-86.228-84.517-143.253-91.935 19.874-4.925 39.32-13.025 57.627-24.464l18.542-11.586c18.306-11.44 34.111-25.367 47.25-41.071-18.33 54.506-13.018 116.483 19.834 169.057l.068.109c-58.21-93.285-29.823-216.105 63.439-274.381l18.32-11.448C1389.225-27.7 1512.118.672 1570.417 93.97c58.299 93.298 29.926 216.19-63.371 274.49l-18.32 11.447c-40.198 25.118-85.89 34.148-129.541 28.827Z" filter="url(#a)" transform="translate(-326 -513)"/></svg>