<svg xmlns="http://www.w3.org/2000/svg" width="2336" height="421"><defs><filter id="a" width="138.8%" height="147.4%" x="-19.4%" y="-23.7%" filterUnits="objectBoundingBox"><feGaussianBlur in="SourceGraphic" stdDeviation="50"/></filter></defs><path fill="#38BDF8" fill-opacity=".8" fill-rule="evenodd" d="M489.15 608.928c-13.31-16.135-29.41-30.43-48.125-42.123l-18.541-11.586c-18.715-11.694-38.62-19.899-58.957-24.79-43.652 5.322-89.343-3.708-129.54-28.826l-18.32-11.447c-93.298-58.3-121.67-181.192-63.372-274.49 58.3-93.297 181.192-121.67 274.49-63.37l18.32 11.447c62.174 38.85 89.954 73.922 83.34 105.215 19.296 19.754 35.046 33.445 47.25 41.07l18.542 11.587c12.204 7.626 31.413 15.78 57.627 24.464 25.227-19.662 68.927-10.068 131.101 28.782l18.32 11.448c93.297 58.299 121.67 181.192 63.37 274.49-58.298 93.297-181.191 121.67-274.489 63.37l-18.32-11.447c-40.197-25.119-68.342-62.228-82.696-103.794Z" filter="url(#a)"/></svg>