<svg xmlns="http://www.w3.org/2000/svg" width="40" height="40"><g fill="none" fill-rule="evenodd"><path stroke="#FFF" stroke-linecap="square" stroke-width="2" d="M5 34.569h29.999M20.994 9.324 14.509 5l-3.624 1.208 4.324 5.044"/><path fill="#FFF" fill-opacity=".24" d="M34.861 11.896a2.729 2.729 0 0 0-3.451-1.727L12.431 16.49l-3.739-2.073-3.092 1.03 2.094 3.622a3 3 0 0 0 2.6 1.5h7.153l15.7-5.232a2.721 2.721 0 0 0 1.721-3.441h-.007Z"/><path stroke="#FFF" stroke-width="2" d="M34.861 11.896a2.729 2.729 0 0 0-3.451-1.727L12.431 16.49l-3.739-2.073-3.092 1.03 2.094 3.622a3 3 0 0 0 2.6 1.5h7.153l15.7-5.232a2.721 2.721 0 0 0 1.721-3.441h-.007Z"/><path stroke="#FFF" stroke-width="2" d="m19.389 19.921-2.116 10.648h4.091l5.435-13.119"/></g></svg>