<svg xmlns="http://www.w3.org/2000/svg" width="40" height="40"><g fill="none" fill-rule="evenodd"><path stroke="#FFF" stroke-linecap="square" stroke-width="2" d="M26.784 29.563s-2.397 3.704-6.306 4.388C17.475 34.477 14 30.622 14 30.622s2.342-2.617 5.345-3.143c3.527-.617 7.439 2.084 7.439 2.084Z"/><path fill="#FFF" fill-opacity=".24" d="M6 21.582s2.721-2.265 5.879-1.856c2.426.314 4.168 4.097 4.168 4.097s-2.419 1.446-4.846 1.131C8.352 24.586 6 21.582 6 21.582ZM27.252 17.756s-2.267 3.756-1.176 7.549c.838 2.914 5.797 4.342 5.797 4.342s1.32-3.234.482-6.147c-.985-3.423-5.103-5.744-5.103-5.744Z"/><path stroke="#FFF" stroke-linecap="square" stroke-width="2" d="M6 21.582s2.721-2.265 5.879-1.856c2.426.314 4.168 4.097 4.168 4.097s-2.419 1.446-4.846 1.131C8.352 24.586 6 21.582 6 21.582ZM19.344 19s-2.598-2.825-2.324-6.267c.211-2.644 4.213-4.732 4.213-4.732s1.695 2.542 1.484 5.186C22.471 16.293 19.344 19 19.344 19ZM27.252 17.756s-2.267 3.756-1.176 7.549c.838 2.914 5.797 4.342 5.797 4.342s1.32-3.234.482-6.147c-.985-3.423-5.103-5.744-5.103-5.744Z"/><path stroke="#FFF" stroke-linecap="square" stroke-width="2" d="M34 30C21 30 12 20 12 7"/></g></svg>