<svg id="svg" version="1.1" xmlns="http://www.w3.org/2000/svg" xmlns:xlink="http://www.w3.org/1999/xlink" width="400" height="400" viewBox="0, 0, 400,400"><g id="svgg"><path id="path0" d="M283.600 72.000 C 283.600 72.220,283.335 72.400,283.012 72.400 C 282.689 72.400,281.783 72.760,281.000 73.200 C 280.217 73.640,279.356 74.004,279.088 74.009 C 278.820 74.014,278.150 74.370,277.600 74.800 C 277.050 75.230,276.195 75.586,275.700 75.591 C 275.205 75.596,274.800 75.780,274.800 76.000 C 274.800 76.220,274.440 76.400,274.000 76.400 C 273.560 76.400,273.200 76.580,273.200 76.800 C 273.200 77.020,272.855 77.200,272.433 77.200 C 272.012 77.200,271.607 77.335,271.533 77.500 C 271.406 77.786,268.296 79.364,266.600 80.003 C 266.160 80.169,264.270 81.047,262.400 81.955 C 260.530 82.864,258.790 83.605,258.533 83.603 C 258.277 83.601,258.007 83.735,257.933 83.900 C 257.741 84.332,254.428 86.000,253.762 86.000 C 253.453 86.000,253.200 86.180,253.200 86.400 C 253.200 86.620,252.851 86.800,252.424 86.800 C 251.997 86.800,251.536 86.980,251.400 87.200 C 251.264 87.420,250.848 87.604,250.476 87.609 C 250.104 87.614,249.350 87.970,248.800 88.400 C 248.250 88.830,247.521 89.186,247.180 89.191 C 246.355 89.203,244.407 90.121,244.403 90.500 C 244.401 90.665,244.040 90.800,243.600 90.800 C 243.160 90.800,242.800 90.980,242.800 91.200 C 242.800 91.420,242.445 91.600,242.011 91.600 C 241.577 91.600,240.452 92.058,239.511 92.618 C 238.570 93.177,237.485 93.738,237.100 93.864 C 236.715 93.990,236.400 94.252,236.400 94.447 C 236.400 94.641,236.151 94.800,235.846 94.800 C 235.541 94.800,234.789 95.061,234.174 95.380 C 233.560 95.698,232.905 95.865,232.719 95.750 C 232.533 95.635,232.430 95.779,232.490 96.070 C 232.551 96.362,232.375 96.555,232.100 96.500 C 231.825 96.445,231.600 96.580,231.600 96.800 C 231.600 97.020,231.870 97.200,232.200 97.200 C 233.187 97.200,232.893 97.972,231.157 99.939 C 225.311 106.561,222.087 120.535,224.544 128.600 C 224.946 129.920,225.493 131.770,225.760 132.712 C 226.026 133.653,226.378 134.288,226.543 134.124 C 226.708 133.959,226.728 134.123,226.588 134.488 C 226.429 134.901,226.647 135.420,227.167 135.864 C 227.688 136.311,228.000 137.056,228.000 137.856 C 228.000 139.328,229.580 142.696,230.782 143.783 C 231.232 144.191,231.600 144.801,231.600 145.140 C 231.600 146.105,233.632 148.796,234.827 149.414 C 235.421 149.721,236.024 150.441,236.168 151.014 C 236.617 152.804,237.445 151.958,243.200 143.825 C 244.410 142.115,245.602 140.432,245.849 140.084 C 246.237 139.537,246.382 139.610,246.933 140.626 C 247.282 141.272,247.575 141.564,247.584 141.276 C 247.593 140.984,247.804 140.879,248.062 141.038 C 248.330 141.204,248.416 141.149,248.266 140.907 C 248.125 140.678,248.258 140.284,248.563 140.031 C 248.867 139.778,249.233 138.948,249.376 138.186 C 249.519 137.424,249.819 136.800,250.042 136.800 C 250.265 136.800,250.319 137.008,250.162 137.262 C 249.985 137.548,250.052 137.615,250.338 137.438 C 250.592 137.281,250.800 136.883,250.800 136.553 C 250.800 136.201,250.991 136.071,251.262 136.238 C 251.536 136.407,251.615 136.349,251.458 136.094 C 251.312 135.858,251.464 135.393,251.796 135.061 C 252.128 134.729,252.400 134.174,252.400 133.829 C 252.400 133.483,252.659 133.200,252.976 133.200 C 253.293 133.200,253.681 132.992,253.838 132.738 C 254.015 132.452,253.948 132.385,253.662 132.562 C 253.408 132.719,253.200 132.657,253.200 132.424 C 253.200 132.191,253.359 132.000,253.553 132.000 C 253.748 132.000,254.006 131.622,254.126 131.160 C 254.256 130.663,254.532 130.434,254.800 130.600 C 255.068 130.766,255.344 130.537,255.474 130.040 C 255.594 129.578,255.852 129.200,256.047 129.200 C 256.241 129.200,256.400 128.964,256.400 128.675 C 256.400 128.387,256.715 127.802,257.100 127.375 C 257.485 126.949,258.055 126.105,258.368 125.500 C 258.680 124.895,259.085 124.400,259.268 124.400 C 259.450 124.400,259.600 124.040,259.600 123.600 C 259.600 123.160,259.780 122.800,260.000 122.800 C 260.220 122.800,260.400 122.536,260.400 122.214 C 260.400 121.892,260.760 121.435,261.200 121.200 C 261.640 120.965,262.000 120.508,262.000 120.186 C 262.000 119.864,262.138 119.600,262.306 119.600 C 262.474 119.600,262.917 118.895,263.290 118.034 C 263.663 117.173,264.425 116.011,264.984 115.452 C 265.543 114.894,266.000 114.158,266.000 113.818 C 266.000 113.478,266.180 113.200,266.400 113.200 C 266.620 113.200,266.800 112.958,266.800 112.662 C 266.800 112.366,267.160 111.798,267.600 111.400 C 268.040 111.002,268.400 110.479,268.401 110.238 C 268.401 109.997,268.941 109.170,269.600 108.400 C 270.259 107.630,270.799 106.803,270.799 106.562 C 270.800 106.321,271.160 105.798,271.600 105.400 C 272.040 105.002,272.400 104.434,272.400 104.138 C 272.400 103.842,272.580 103.600,272.800 103.600 C 273.020 103.600,273.200 103.375,273.201 103.100 C 273.201 102.825,273.741 101.970,274.400 101.200 C 275.059 100.430,275.599 99.597,275.599 99.349 C 275.600 99.101,275.873 98.671,276.207 98.394 C 276.541 98.117,277.123 97.240,277.500 96.445 C 277.877 95.650,278.668 94.495,279.258 93.877 C 279.848 93.259,280.606 92.175,280.941 91.467 C 281.277 90.759,282.013 89.645,282.575 88.990 C 283.138 88.336,283.599 87.575,283.600 87.300 C 283.600 87.025,283.752 86.800,283.937 86.800 C 284.123 86.800,284.704 85.945,285.230 84.900 C 285.756 83.855,286.477 82.730,286.832 82.400 C 289.133 80.262,291.299 75.357,290.938 73.100 L 290.698 71.600 287.149 71.600 C 285.050 71.600,283.600 71.763,283.600 72.000 M216.197 106.404 C 210.552 109.095,208.510 110.000,208.084 110.000 C 207.835 110.000,207.309 110.339,206.916 110.753 C 206.522 111.168,205.570 111.638,204.800 111.798 C 204.030 111.958,203.130 112.314,202.800 112.588 C 202.470 112.862,201.607 113.286,200.882 113.529 C 200.158 113.772,199.078 114.311,198.482 114.727 C 197.887 115.143,196.871 115.612,196.224 115.768 C 195.578 115.925,194.560 116.401,193.963 116.827 C 193.365 117.252,192.732 117.600,192.555 117.600 C 192.188 117.600,183.459 121.667,178.400 124.196 C 176.530 125.130,174.550 126.033,174.000 126.202 C 173.450 126.371,172.491 126.935,171.869 127.455 C 171.247 127.975,170.445 128.400,170.086 128.400 C 169.728 128.400,167.086 129.546,164.217 130.947 C 161.348 132.348,157.740 134.071,156.200 134.775 C 149.134 138.006,146.081 139.678,144.600 141.129 C 142.513 143.173,140.800 145.211,140.800 145.650 C 140.800 145.843,140.620 146.000,140.400 146.000 C 140.180 146.000,140.000 145.730,140.000 145.400 C 140.000 145.070,140.157 144.800,140.350 144.800 C 140.542 144.800,140.808 144.260,140.940 143.600 C 141.072 142.940,141.388 142.400,141.643 142.400 C 142.090 142.400,142.841 141.661,144.448 139.639 C 144.868 139.110,145.320 138.787,145.453 138.920 C 145.586 139.053,145.899 138.937,146.148 138.663 C 146.396 138.388,147.015 137.700,147.521 137.133 L 148.443 136.103 147.470 136.289 C 146.934 136.391,145.530 137.400,144.348 138.531 C 143.167 139.662,141.975 140.537,141.700 140.476 C 141.425 140.415,141.200 140.699,141.200 141.108 C 141.200 141.516,140.660 142.368,140.000 143.000 C 139.340 143.632,138.800 144.465,138.800 144.851 C 138.800 145.237,138.604 145.674,138.365 145.822 C 138.126 145.969,138.012 146.404,138.113 146.788 C 138.213 147.172,138.120 147.800,137.905 148.183 C 137.335 149.203,137.309 152.660,137.865 153.422 C 138.129 153.783,138.237 154.360,138.105 154.704 C 137.960 155.082,138.029 155.229,138.280 155.074 C 138.509 154.932,138.812 154.239,138.953 153.533 C 139.272 151.940,139.745 152.397,140.346 154.877 C 140.937 157.321,140.921 157.600,140.182 157.600 C 139.828 157.600,139.615 157.319,139.682 156.941 C 139.759 156.511,139.500 156.256,138.940 156.210 C 138.282 156.156,138.154 156.287,138.394 156.770 C 138.566 157.116,138.938 157.895,139.221 158.500 C 139.845 159.835,140.225 159.892,140.560 158.700 C 140.811 157.806,140.818 157.806,141.449 158.600 C 142.307 159.678,143.302 162.032,143.019 162.314 C 142.716 162.617,141.200 160.969,141.200 160.337 C 141.200 159.948,141.095 159.945,140.716 160.324 C 140.338 160.702,140.379 161.056,140.906 161.948 C 141.276 162.575,141.449 163.232,141.289 163.408 C 141.130 163.584,141.225 163.599,141.500 163.441 C 141.804 163.266,142.000 163.384,142.000 163.743 C 142.000 164.068,142.178 164.393,142.397 164.467 C 142.615 164.540,142.835 165.106,142.886 165.725 C 143.002 167.129,143.835 167.925,144.497 167.263 C 144.848 166.912,144.771 166.800,144.180 166.799 C 143.609 166.798,143.386 166.504,143.349 165.699 C 143.320 165.095,143.230 164.353,143.149 164.050 C 142.834 162.886,143.831 163.265,144.332 164.499 C 144.623 165.215,145.207 166.492,145.630 167.338 C 146.597 169.269,146.594 169.600,145.613 169.600 C 145.077 169.600,144.899 169.408,145.055 169.000 C 145.182 168.670,145.086 168.400,144.843 168.400 C 144.202 168.400,144.299 169.418,144.996 169.996 C 145.323 170.268,145.493 170.650,145.372 170.845 C 145.251 171.040,145.373 171.200,145.643 171.200 C 145.913 171.200,146.013 171.321,145.865 171.468 C 145.718 171.616,145.886 172.178,146.240 172.717 C 146.696 173.414,146.726 173.606,146.341 173.380 C 146.044 173.206,146.143 173.453,146.562 173.931 C 146.981 174.409,147.209 174.800,147.069 174.800 C 146.928 174.800,147.199 175.475,147.670 176.300 C 149.317 179.188,149.557 179.746,149.318 180.133 C 149.184 180.350,149.282 180.396,149.538 180.238 C 149.954 179.981,150.209 180.743,150.037 181.730 C 150.006 181.911,150.123 181.971,150.297 181.864 C 150.471 181.756,150.818 182.103,151.069 182.635 C 151.413 183.364,151.412 183.533,151.063 183.324 C 150.714 183.115,150.713 183.189,151.057 183.623 C 151.977 184.782,153.200 187.243,153.200 187.932 C 153.200 188.321,153.363 188.811,153.562 189.020 C 154.157 189.644,155.599 192.387,155.609 192.912 C 155.614 193.180,155.970 193.850,156.400 194.400 C 156.830 194.950,157.186 195.873,157.191 196.451 C 157.196 197.029,157.468 197.724,157.796 197.996 C 158.123 198.268,158.309 198.623,158.209 198.785 C 158.109 198.947,158.381 199.459,158.814 199.923 C 159.246 200.387,159.600 201.044,159.600 201.383 C 159.600 201.722,159.780 202.000,160.000 202.000 C 160.220 202.000,160.406 202.405,160.413 202.900 C 160.420 203.395,160.684 204.142,161.000 204.559 C 161.316 204.976,161.462 205.499,161.325 205.721 C 161.184 205.949,161.276 206.000,161.538 205.838 C 161.808 205.672,162.021 205.813,162.050 206.176 C 162.078 206.519,162.123 206.995,162.150 207.232 C 162.178 207.470,162.515 207.895,162.900 208.176 C 163.285 208.458,163.600 209.163,163.600 209.744 C 163.600 210.325,163.780 210.800,164.000 210.800 C 164.220 210.800,164.400 211.135,164.400 211.544 C 164.400 212.456,166.805 217.200,167.267 217.200 C 167.450 217.200,167.600 217.549,167.600 217.976 C 167.600 218.403,167.780 218.864,168.000 219.000 C 168.220 219.136,168.400 219.672,168.400 220.190 C 168.400 220.709,168.625 221.216,168.900 221.317 C 169.300 221.463,169.300 221.606,168.900 222.030 C 168.357 222.606,168.209 224.400,168.705 224.400 C 168.873 224.400,169.346 223.953,169.755 223.408 C 170.558 222.339,171.200 222.409,171.200 223.564 C 171.200 223.958,171.669 225.163,172.242 226.240 C 176.415 234.089,183.612 250.358,184.572 254.115 C 188.419 269.164,185.603 281.324,175.921 291.471 C 174.204 293.270,172.800 295.025,172.800 295.371 C 172.800 295.717,172.595 296.000,172.344 296.000 C 171.873 296.000,170.835 297.161,170.813 297.714 C 170.806 297.886,171.205 297.959,171.700 297.876 C 173.152 297.632,174.800 296.853,174.800 296.410 C 174.800 296.184,174.935 296.038,175.100 296.085 C 175.265 296.132,175.781 295.958,176.247 295.699 C 176.713 295.440,177.208 295.342,177.347 295.481 C 177.486 295.620,177.600 295.562,177.600 295.352 C 177.600 295.142,177.975 294.942,178.434 294.907 C 178.892 294.873,179.588 294.475,179.981 294.022 C 180.373 293.570,181.153 293.200,181.714 293.200 C 182.274 293.200,182.793 293.065,182.867 292.900 C 183.059 292.468,186.372 290.800,187.038 290.800 C 187.347 290.800,187.600 290.620,187.600 290.400 C 187.600 290.180,188.039 290.000,188.576 290.000 C 189.113 290.000,189.668 289.814,189.808 289.587 C 190.106 289.105,193.235 287.583,194.229 287.437 C 194.604 287.382,195.131 287.036,195.399 286.668 C 195.668 286.301,196.363 286.000,196.944 286.000 C 197.525 286.000,198.000 285.849,198.000 285.664 C 198.000 285.237,199.816 284.400,200.743 284.400 C 201.132 284.400,201.836 284.040,202.308 283.600 C 202.780 283.160,203.461 282.800,203.820 282.800 C 204.180 282.800,204.931 282.440,205.491 282.000 C 206.050 281.560,206.934 281.200,207.454 281.200 C 207.974 281.200,208.400 281.020,208.400 280.800 C 208.400 280.580,208.660 280.400,208.977 280.400 C 209.295 280.400,209.835 280.000,210.177 279.511 C 210.566 278.956,210.800 278.836,210.800 279.191 C 210.800 279.634,210.907 279.653,211.280 279.280 C 211.544 279.016,212.084 278.800,212.480 278.800 C 212.876 278.800,213.200 278.620,213.200 278.400 C 213.200 278.180,213.560 278.000,214.000 278.000 C 214.440 278.000,214.800 277.820,214.800 277.600 C 214.800 277.380,215.081 277.200,215.424 277.200 C 215.816 277.200,215.936 277.015,215.747 276.700 C 215.540 276.356,215.656 276.370,216.118 276.745 C 216.691 277.209,216.825 277.199,217.026 276.676 C 217.156 276.338,217.527 275.960,217.852 275.836 C 218.206 275.700,218.336 275.779,218.179 276.034 C 218.034 276.268,218.295 276.222,218.758 275.933 C 219.221 275.644,219.600 275.271,219.600 275.104 C 219.600 274.937,219.945 274.800,220.367 274.800 C 220.788 274.800,221.193 274.622,221.267 274.403 C 221.340 274.185,221.882 273.967,222.471 273.919 C 223.060 273.870,223.455 273.688,223.348 273.515 C 223.171 273.229,224.110 273.020,224.930 273.163 C 225.111 273.194,225.171 273.077,225.064 272.903 C 224.956 272.729,225.303 272.382,225.835 272.131 C 226.564 271.787,226.744 271.788,226.570 272.137 C 226.443 272.392,226.690 272.203,227.119 271.719 C 227.547 271.234,228.776 270.623,229.849 270.361 C 232.715 269.661,233.649 268.723,232.000 268.200 C 231.004 267.884,230.949 267.200,231.920 267.200 C 232.316 267.200,232.811 267.040,233.020 266.845 C 233.787 266.129,235.452 265.814,234.890 266.492 C 234.613 266.825,234.508 267.417,234.657 267.805 C 234.915 268.476,234.956 268.475,235.464 267.780 C 235.759 267.377,236.000 267.161,236.000 267.300 C 236.000 267.439,236.482 267.302,237.071 266.997 C 237.661 266.691,238.318 266.550,238.533 266.682 C 238.750 266.816,238.796 266.718,238.638 266.462 C 238.469 266.188,238.607 266.000,238.976 266.000 C 239.319 266.000,239.600 265.820,239.600 265.600 C 239.600 265.380,240.050 265.200,240.600 265.200 C 241.792 265.200,241.938 264.413,240.800 264.116 C 239.787 263.851,239.754 263.200,240.753 263.200 C 241.171 263.200,241.600 263.557,241.716 264.002 C 241.955 264.916,242.867 264.733,244.069 263.531 C 244.471 263.129,245.250 262.800,245.800 262.800 C 246.350 262.800,246.800 262.620,246.800 262.400 C 246.800 262.180,247.017 262.000,247.283 262.000 C 248.074 262.000,250.755 259.147,250.525 258.550 C 250.400 258.224,250.576 258.000,250.957 258.000 C 251.333 258.000,251.600 257.668,251.600 257.200 C 251.600 256.760,251.735 256.399,251.900 256.397 C 252.065 256.395,252.408 255.945,252.663 255.396 C 252.933 254.812,252.958 254.503,252.721 254.649 C 252.499 254.786,252.633 254.415,253.020 253.825 C 253.407 253.235,253.798 251.821,253.889 250.684 C 253.981 249.546,254.232 248.402,254.449 248.141 C 254.909 247.587,254.809 243.653,254.328 243.355 C 254.147 243.244,254.000 242.359,254.000 241.389 C 254.000 240.366,253.664 239.026,253.200 238.200 C 252.760 237.417,252.400 236.511,252.400 236.188 C 252.400 235.865,252.220 235.600,252.000 235.600 C 251.780 235.600,251.596 235.195,251.591 234.700 C 251.586 234.205,251.230 233.350,250.800 232.800 C 250.370 232.250,250.014 231.395,250.009 230.900 C 250.004 230.405,249.849 230.000,249.664 230.000 C 249.479 230.000,249.090 229.280,248.800 228.400 C 248.510 227.520,248.121 226.800,247.936 226.800 C 247.751 226.800,247.600 226.440,247.600 226.000 C 247.600 225.560,247.420 225.200,247.200 225.200 C 246.980 225.200,246.800 224.865,246.800 224.455 C 246.800 224.046,246.080 222.311,245.200 220.600 C 244.320 218.889,243.600 217.244,243.600 216.945 C 243.600 216.645,243.465 216.399,243.300 216.397 C 242.911 216.393,242.000 214.430,242.000 213.596 C 242.000 213.241,241.640 212.564,241.200 212.092 C 240.760 211.620,240.400 210.956,240.400 210.617 C 240.400 210.278,240.220 210.000,240.000 210.000 C 239.780 210.000,239.600 209.460,239.600 208.800 C 239.600 208.140,239.420 207.600,239.200 207.600 C 238.980 207.600,238.800 207.240,238.800 206.800 C 238.800 206.360,238.620 206.000,238.400 206.000 C 238.180 206.000,238.000 205.766,238.000 205.480 C 238.000 204.744,237.059 202.807,236.700 202.803 C 236.535 202.801,236.400 202.451,236.400 202.024 C 236.400 201.597,236.220 201.136,236.000 201.000 C 235.780 200.864,235.596 200.448,235.591 200.076 C 235.586 199.704,235.230 198.950,234.800 198.400 C 234.370 197.850,234.014 197.121,234.009 196.780 C 233.997 195.955,233.079 194.007,232.700 194.003 C 232.535 194.001,232.400 193.683,232.400 193.296 C 232.400 192.908,231.685 191.153,230.810 189.396 C 229.936 187.638,229.216 185.975,229.210 185.700 C 229.205 185.425,229.020 185.200,228.800 185.200 C 228.580 185.200,228.400 184.840,228.400 184.400 C 228.400 183.960,228.220 183.600,228.000 183.600 C 227.780 183.600,227.600 183.328,227.600 182.995 C 227.600 182.662,227.435 182.077,227.234 181.695 C 227.033 181.313,226.407 179.969,225.844 178.709 C 225.153 177.166,224.639 176.487,224.269 176.629 C 223.750 176.828,222.400 175.266,222.400 174.467 C 222.400 174.269,220.494 170.176,218.163 165.372 C 213.646 156.057,211.977 152.162,210.723 148.000 C 208.707 141.306,208.650 140.877,208.650 132.400 L 208.650 124.200 209.954 120.400 C 211.406 116.172,214.939 109.906,217.345 107.292 C 219.338 105.127,219.162 104.990,216.197 106.404 M210.256 106.278 C 209.875 106.659,209.947 107.600,210.357 107.600 C 210.848 107.600,211.242 106.473,210.838 106.224 C 210.659 106.113,210.396 106.137,210.256 106.278 M207.051 108.083 C 207.159 108.257,207.607 108.400,208.047 108.400 C 208.487 108.400,208.743 108.231,208.616 108.025 C 208.488 107.819,208.040 107.677,207.620 107.708 C 207.199 107.740,206.944 107.909,207.051 108.083 M202.200 110.400 C 202.064 110.620,202.323 110.800,202.776 110.800 C 203.229 110.800,203.600 110.620,203.600 110.400 C 203.600 110.180,203.341 110.000,203.024 110.000 C 202.707 110.000,202.336 110.180,202.200 110.400 M199.385 111.369 C 198.057 112.072,195.749 114.040,196.400 113.915 C 196.730 113.852,197.291 113.485,197.647 113.100 C 198.003 112.715,198.688 112.400,199.171 112.400 C 199.653 112.400,199.944 112.233,199.818 112.029 C 199.691 111.824,199.996 111.598,200.494 111.525 C 201.139 111.431,201.227 111.327,200.800 111.165 C 200.470 111.040,199.833 111.132,199.385 111.369 M193.451 114.483 C 193.725 114.927,194.800 114.880,194.800 114.425 C 194.800 114.219,194.452 114.076,194.028 114.108 C 193.603 114.140,193.344 114.309,193.451 114.483 M191.276 115.424 C 190.988 115.750,190.555 115.896,190.314 115.747 C 190.052 115.585,189.991 115.661,190.162 115.938 C 190.557 116.578,191.406 116.516,191.996 115.804 C 192.268 115.477,192.678 115.325,192.907 115.466 C 193.149 115.616,193.204 115.530,193.038 115.262 C 192.652 114.637,191.911 114.705,191.276 115.424 M184.405 118.791 C 184.059 119.436,184.094 119.539,184.591 119.348 C 184.926 119.220,185.200 118.864,185.200 118.557 C 185.200 117.776,184.901 117.864,184.405 118.791 M157.132 131.482 C 156.795 131.888,156.959 131.903,157.955 131.556 C 158.640 131.317,159.200 131.061,159.200 130.986 C 159.200 130.628,157.503 131.035,157.132 131.482 M154.196 133.207 C 154.058 133.430,153.782 133.513,153.584 133.390 C 153.385 133.267,152.798 133.445,152.279 133.785 C 151.761 134.125,151.201 134.267,151.035 134.101 C 150.869 133.936,150.793 134.070,150.867 134.400 C 150.958 134.809,150.704 134.984,150.070 134.950 C 149.448 134.916,149.272 135.032,149.540 135.300 C 149.807 135.567,150.515 135.434,151.670 134.898 C 152.622 134.457,153.715 133.990,154.100 133.861 C 154.485 133.731,154.800 133.439,154.800 133.213 C 154.800 132.686,154.519 132.684,154.196 133.207 M248.934 137.068 C 249.228 137.361,248.075 138.800,247.547 138.800 C 247.365 138.800,247.422 138.350,247.673 137.800 C 248.138 136.779,248.459 136.593,248.934 137.068 M140.156 147.900 C 139.773 149.526,139.279 149.855,138.984 148.681 C 138.685 147.487,138.995 146.800,139.831 146.800 C 140.265 146.800,140.348 147.084,140.156 147.900 M240.497 150.199 C 240.660 150.379,240.593 150.768,240.348 151.063 C 240.006 151.475,240.053 151.600,240.551 151.600 C 241.315 151.600,241.421 150.575,240.700 150.159 C 240.425 150.001,240.333 150.019,240.497 150.199 M148.729 174.262 C 148.658 174.626,148.307 174.967,147.949 175.020 C 147.488 175.087,147.355 174.893,147.495 174.357 C 147.739 173.425,148.910 173.335,148.729 174.262 M154.094 244.596 C 154.255 244.775,154.075 245.177,153.694 245.490 C 153.312 245.803,153.225 245.945,153.500 245.806 C 153.775 245.667,154.000 245.731,154.000 245.949 C 154.000 246.168,153.640 246.460,153.200 246.600 C 152.760 246.740,152.400 247.076,152.400 247.347 C 152.400 248.253,151.406 249.994,150.887 249.997 C 150.606 249.999,150.255 250.315,150.108 250.700 C 149.961 251.085,149.516 251.749,149.120 252.175 C 148.724 252.602,148.400 253.187,148.400 253.475 C 148.400 253.764,148.220 254.000,148.000 254.000 C 147.780 254.000,147.600 254.278,147.600 254.617 C 147.600 254.957,147.142 255.722,146.581 256.317 C 146.021 256.913,145.278 257.991,144.929 258.713 C 144.581 259.435,143.780 260.579,143.148 261.255 C 142.517 261.932,142.000 262.708,142.000 262.980 C 142.000 263.253,141.640 263.802,141.200 264.200 C 140.760 264.598,140.400 265.166,140.400 265.462 C 140.400 265.758,140.241 266.000,140.046 266.000 C 139.851 266.000,139.404 266.605,139.053 267.345 C 138.702 268.085,138.141 268.917,137.807 269.194 C 137.473 269.471,137.200 269.946,137.200 270.249 C 137.200 270.552,137.020 270.800,136.800 270.800 C 136.580 270.800,136.400 271.025,136.399 271.300 C 136.399 271.575,135.859 272.430,135.200 273.200 C 134.541 273.970,134.001 274.825,134.001 275.100 C 134.000 275.375,133.841 275.600,133.646 275.600 C 133.451 275.600,133.004 276.205,132.653 276.945 C 132.302 277.685,131.741 278.517,131.407 278.794 C 131.073 279.071,130.800 279.546,130.800 279.849 C 130.800 280.152,130.650 280.400,130.468 280.400 C 130.285 280.400,129.880 280.895,129.568 281.500 C 129.256 282.105,128.899 282.690,128.774 282.800 C 128.368 283.158,126.191 286.570,125.588 287.793 C 125.264 288.449,124.505 289.511,123.900 290.152 C 123.295 290.794,122.800 291.562,122.800 291.859 C 122.800 292.157,122.620 292.400,122.400 292.400 C 122.180 292.400,122.000 292.636,122.000 292.925 C 122.000 293.213,121.640 293.836,121.200 294.308 C 120.760 294.780,120.400 295.404,120.400 295.695 C 120.400 295.986,120.040 296.483,119.600 296.800 C 119.160 297.117,118.800 297.657,118.800 298.000 C 118.800 298.343,118.440 298.883,118.000 299.200 C 117.560 299.517,117.200 300.009,117.200 300.292 C 117.200 300.575,116.660 301.372,116.000 302.063 C 115.340 302.754,114.800 303.562,114.800 303.859 C 114.800 304.157,114.620 304.400,114.400 304.400 C 114.180 304.400,114.000 304.694,114.000 305.053 C 114.000 305.412,113.684 305.997,113.297 306.353 C 112.911 306.709,112.340 307.495,112.030 308.100 C 111.719 308.705,111.315 309.200,111.132 309.200 C 110.950 309.200,110.800 309.560,110.800 310.000 C 110.800 310.440,110.659 310.800,110.486 310.800 C 110.314 310.800,109.879 311.295,109.521 311.900 C 109.163 312.505,108.404 313.540,107.835 314.200 C 107.266 314.860,106.801 315.625,106.800 315.900 C 106.800 316.175,106.620 316.400,106.400 316.400 C 106.180 316.400,106.000 316.694,106.000 317.053 C 106.000 317.412,105.684 317.997,105.297 318.353 C 104.911 318.709,104.340 319.495,104.030 320.100 C 103.719 320.705,103.315 321.200,103.132 321.200 C 102.950 321.200,102.800 321.560,102.800 322.000 C 102.800 322.440,102.620 322.800,102.400 322.800 C 101.777 322.800,101.922 326.380,102.571 327.029 C 103.248 327.705,110.000 327.861,110.000 327.200 C 110.000 326.980,110.351 326.800,110.780 326.800 C 111.209 326.800,112.360 326.260,113.338 325.600 C 114.316 324.940,115.405 324.400,115.758 324.400 C 116.111 324.400,116.400 324.220,116.400 324.000 C 116.400 323.780,116.749 323.600,117.176 323.600 C 117.603 323.600,118.064 323.420,118.200 323.200 C 118.336 322.980,118.763 322.800,119.148 322.800 C 119.534 322.800,120.236 322.440,120.708 322.000 C 121.180 321.560,121.923 321.200,122.360 321.200 C 122.796 321.200,123.264 321.020,123.400 320.800 C 123.536 320.580,123.997 320.400,124.424 320.400 C 124.851 320.400,125.200 320.220,125.200 320.000 C 125.200 319.780,125.560 319.600,126.000 319.600 C 126.440 319.600,126.800 319.420,126.800 319.200 C 126.800 318.980,127.034 318.800,127.320 318.800 C 128.056 318.800,129.993 317.859,129.997 317.500 C 129.999 317.335,130.360 317.200,130.800 317.200 C 131.240 317.200,131.600 317.049,131.600 316.864 C 131.600 316.679,132.365 316.280,133.300 315.978 C 135.109 315.392,139.146 313.396,139.780 312.773 C 139.989 312.568,140.574 312.400,141.080 312.400 C 141.586 312.400,142.000 312.220,142.000 312.000 C 142.000 311.780,142.360 311.600,142.800 311.600 C 143.240 311.600,143.601 311.465,143.603 311.300 C 143.607 310.941,145.544 310.000,146.280 310.000 C 146.566 310.000,146.800 309.820,146.800 309.600 C 146.800 309.380,147.072 309.200,147.405 309.200 C 148.051 309.200,148.686 308.929,150.600 307.836 C 151.260 307.459,152.115 307.051,152.500 306.929 C 152.885 306.807,153.200 306.548,153.200 306.353 C 153.200 306.159,153.740 306.000,154.400 306.000 C 155.060 306.000,155.600 305.820,155.600 305.600 C 155.600 305.380,155.960 305.200,156.400 305.200 C 156.840 305.200,157.200 305.020,157.200 304.800 C 157.200 304.580,157.560 304.400,158.000 304.400 C 158.440 304.400,158.800 304.220,158.800 304.000 C 158.800 303.780,159.145 303.600,159.567 303.600 C 159.988 303.600,160.393 303.465,160.467 303.300 C 160.680 302.820,164.144 301.170,165.086 301.099 C 166.076 301.024,165.891 300.403,164.876 300.394 C 163.360 300.380,162.959 299.708,163.880 298.721 C 167.226 295.134,171.200 283.777,171.200 277.803 C 171.200 270.586,167.852 259.761,164.228 255.261 C 163.758 254.677,162.893 253.452,162.306 252.537 C 161.719 251.623,160.248 249.860,159.037 248.620 L 156.835 246.365 156.034 247.166 C 155.593 247.607,154.311 249.235,153.184 250.784 C 151.278 253.404,150.400 254.166,150.400 253.200 C 150.400 252.980,150.580 252.800,150.800 252.800 C 151.020 252.800,151.200 252.440,151.200 252.000 C 151.200 251.560,151.368 251.200,151.573 251.200 C 151.778 251.200,152.057 250.849,152.194 250.420 C 152.330 249.992,152.972 249.073,153.620 248.378 C 154.860 247.052,155.210 245.083,154.300 244.559 C 154.025 244.401,153.932 244.418,154.094 244.596 M150.400 254.728 C 150.400 255.079,148.545 256.800,148.167 256.800 C 147.834 256.800,149.746 254.448,150.100 254.422 C 150.265 254.410,150.400 254.548,150.400 254.728 M232.806 267.700 C 232.820 268.810,233.444 269.270,234.010 268.588 C 234.463 268.042,234.458 267.882,233.974 267.576 C 233.178 267.072,232.799 267.112,232.806 267.700 M230.600 268.400 C 230.736 268.620,230.466 268.800,230.000 268.800 C 229.534 268.800,229.264 268.620,229.400 268.400 C 229.536 268.180,229.806 268.000,230.000 268.000 C 230.194 268.000,230.464 268.180,230.600 268.400 M228.800 269.200 C 228.800 269.420,228.530 269.600,228.200 269.600 C 227.870 269.600,227.600 269.420,227.600 269.200 C 227.600 268.980,227.870 268.800,228.200 268.800 C 228.530 268.800,228.800 268.980,228.800 269.200 M216.800 274.800 C 216.800 275.020,216.530 275.200,216.200 275.200 C 215.870 275.200,215.600 275.380,215.600 275.600 C 215.600 275.820,215.330 276.000,215.000 276.000 C 214.115 276.000,214.271 275.454,215.300 274.944 C 216.497 274.351,216.800 274.322,216.800 274.800 M192.000 286.800 C 192.000 287.020,191.629 287.200,191.176 287.200 C 190.723 287.200,190.464 287.020,190.600 286.800 C 190.736 286.580,191.107 286.400,191.424 286.400 C 191.741 286.400,192.000 286.580,192.000 286.800 M167.600 299.300 C 167.600 299.723,169.107 299.675,169.374 299.242 C 169.495 299.046,169.146 298.911,168.598 298.942 C 168.049 298.974,167.600 299.135,167.600 299.300 " stroke="none" fill="#1a7fc7" fill-rule="evenodd"></path><path id="path1" d="M230.800 97.024 C 230.800 97.367,230.620 97.536,230.400 97.400 C 230.180 97.264,230.000 97.343,230.000 97.576 C 230.000 97.809,229.475 98.000,228.833 98.000 C 228.192 98.000,227.607 98.135,227.533 98.300 C 227.332 98.752,223.679 100.400,222.878 100.400 C 222.492 100.400,221.917 100.760,221.600 101.200 C 221.261 101.670,220.565 102.000,219.912 102.000 C 219.300 102.000,218.800 102.180,218.800 102.400 C 218.800 102.620,218.541 102.800,218.224 102.800 C 217.907 102.800,217.519 103.008,217.362 103.262 C 217.185 103.548,217.252 103.615,217.538 103.438 C 218.239 103.005,218.090 103.429,217.323 104.051 C 216.863 104.424,216.743 104.440,216.947 104.100 C 217.154 103.756,216.949 103.600,216.290 103.600 C 215.064 103.600,214.689 103.984,215.252 104.663 C 215.788 105.308,215.148 105.388,214.515 104.755 C 214.012 104.252,213.064 104.656,213.414 105.223 C 213.539 105.425,213.362 105.484,213.021 105.353 C 212.628 105.202,212.400 105.337,212.400 105.720 C 212.400 106.143,212.140 106.257,211.537 106.100 C 211.039 105.969,210.775 106.035,210.911 106.256 C 211.041 106.466,210.965 106.900,210.743 107.219 C 210.436 107.661,210.290 107.680,210.136 107.300 C 209.775 106.410,208.277 106.687,208.516 107.600 C 208.673 108.200,208.528 108.400,207.939 108.400 C 207.416 108.400,207.254 108.232,207.453 107.900 C 207.660 107.556,207.544 107.570,207.081 107.945 C 206.711 108.245,206.507 108.650,206.628 108.845 C 206.749 109.040,206.657 109.200,206.424 109.200 C 206.191 109.200,206.000 109.020,206.000 108.800 C 206.000 108.580,205.812 108.400,205.582 108.400 C 205.353 108.400,205.218 108.696,205.282 109.059 C 205.347 109.421,205.175 109.796,204.900 109.892 C 204.625 109.988,204.400 109.872,204.400 109.633 C 204.400 109.395,204.220 109.200,204.000 109.200 C 203.780 109.200,203.600 109.560,203.600 110.000 C 203.600 110.674,203.331 110.801,201.900 110.806 C 200.655 110.811,200.361 110.916,200.800 111.200 C 201.283 111.512,201.219 111.589,200.476 111.594 C 199.964 111.597,199.663 111.778,199.800 112.000 C 199.936 112.220,199.653 112.400,199.171 112.400 C 198.688 112.400,198.003 112.715,197.647 113.100 C 197.291 113.485,196.730 113.850,196.400 113.910 C 196.070 113.971,196.250 113.660,196.800 113.219 C 197.350 112.778,197.602 112.414,197.359 112.409 C 197.117 112.404,196.354 112.940,195.663 113.600 C 194.402 114.805,193.292 115.234,193.853 114.300 C 194.060 113.956,193.944 113.970,193.481 114.345 C 193.111 114.645,192.925 115.078,193.066 115.307 C 193.208 115.536,193.136 115.608,192.907 115.466 C 192.678 115.325,192.268 115.477,191.996 115.804 C 191.391 116.534,190.226 116.616,190.645 115.900 C 190.806 115.625,190.547 115.743,190.069 116.162 C 189.591 116.581,189.194 116.761,189.187 116.562 C 189.179 116.363,188.835 116.606,188.421 117.102 C 187.902 117.724,187.605 117.848,187.465 117.502 C 187.309 117.119,187.165 117.137,186.857 117.581 C 186.635 117.900,186.523 118.275,186.609 118.414 C 186.695 118.553,186.511 118.667,186.200 118.667 C 185.889 118.667,185.728 118.517,185.841 118.333 C 185.955 118.150,185.857 118.000,185.624 118.000 C 185.391 118.000,185.200 118.251,185.200 118.557 C 185.200 118.864,184.921 119.222,184.579 119.353 C 184.223 119.489,184.063 119.422,184.203 119.195 C 184.744 118.319,182.937 118.870,182.245 119.792 C 181.835 120.338,181.322 120.675,181.105 120.541 C 180.888 120.407,180.588 120.496,180.438 120.739 C 180.288 120.981,179.769 121.240,179.284 121.314 C 178.799 121.388,177.938 121.822,177.371 122.279 C 176.785 122.750,176.007 123.022,175.570 122.908 C 175.066 122.776,174.800 122.911,174.800 123.298 C 174.800 123.692,174.500 123.835,173.900 123.728 C 173.337 123.627,172.569 123.943,171.848 124.575 C 171.214 125.129,170.539 125.486,170.348 125.368 C 170.157 125.250,170.000 125.343,170.000 125.576 C 170.000 125.809,169.651 126.000,169.224 126.000 C 168.797 126.000,168.336 126.180,168.200 126.400 C 168.064 126.620,167.513 126.800,166.976 126.800 C 166.439 126.800,166.000 126.946,166.000 127.125 C 166.000 127.304,165.366 127.699,164.591 128.003 C 163.817 128.307,162.889 128.881,162.529 129.278 C 162.170 129.675,161.383 130.000,160.781 130.000 C 160.145 130.000,159.582 130.269,159.439 130.642 C 159.294 131.019,158.940 131.186,158.576 131.046 C 158.223 130.911,158.063 130.978,158.203 131.205 C 158.337 131.422,158.122 131.621,157.724 131.646 C 155.944 131.760,154.800 132.310,154.800 133.053 C 154.800 133.590,154.227 133.911,152.050 134.589 C 151.397 134.793,151.185 134.747,151.374 134.443 C 151.797 133.757,151.363 133.920,150.749 134.677 C 150.281 135.253,150.283 135.303,150.762 135.015 C 151.143 134.785,151.232 134.825,151.038 135.138 C 150.881 135.392,150.483 135.600,150.153 135.600 C 149.779 135.600,149.666 135.411,149.853 135.100 C 150.260 134.423,148.786 135.581,147.945 136.600 C 146.258 138.643,145.700 139.167,145.465 138.932 C 145.325 138.792,144.868 139.110,144.448 139.639 C 142.841 141.661,142.090 142.400,141.643 142.400 C 141.388 142.400,141.072 142.940,140.940 143.600 C 140.808 144.260,140.543 144.800,140.350 144.800 C 140.157 144.800,140.000 145.070,140.000 145.400 C 140.000 145.730,140.180 146.000,140.400 146.000 C 140.620 146.000,140.800 145.843,140.800 145.650 C 140.800 145.211,142.513 143.173,144.600 141.129 C 146.081 139.678,149.134 138.006,156.200 134.775 C 157.740 134.071,161.348 132.348,164.217 130.947 C 167.086 129.546,169.728 128.400,170.086 128.400 C 170.445 128.400,171.247 127.975,171.869 127.455 C 172.491 126.935,173.450 126.371,174.000 126.202 C 174.550 126.033,176.530 125.130,178.400 124.196 C 183.459 121.667,192.188 117.600,192.555 117.600 C 192.732 117.600,193.365 117.252,193.963 116.827 C 194.560 116.401,195.578 115.925,196.224 115.768 C 196.871 115.612,197.887 115.143,198.482 114.727 C 199.078 114.311,200.158 113.772,200.882 113.529 C 201.607 113.286,202.470 112.862,202.800 112.588 C 203.130 112.314,204.030 111.958,204.800 111.798 C 205.570 111.638,206.522 111.168,206.916 110.753 C 207.309 110.339,207.835 110.000,208.084 110.000 C 208.510 110.000,210.552 109.095,216.197 106.404 C 219.162 104.990,219.338 105.127,217.345 107.292 C 214.939 109.906,211.406 116.172,209.954 120.400 L 208.650 124.200 208.650 132.400 C 208.650 140.877,208.707 141.306,210.723 148.000 C 211.977 152.162,213.646 156.057,218.163 165.372 C 220.494 170.176,222.406 174.308,222.413 174.553 C 222.448 175.803,225.200 177.572,225.200 176.345 C 225.200 176.155,224.975 175.997,224.700 175.994 C 224.366 175.990,224.342 175.890,224.626 175.694 C 225.246 175.267,227.600 171.731,227.600 171.228 C 227.600 170.993,227.750 170.800,227.932 170.800 C 228.115 170.800,228.519 170.305,228.830 169.700 C 229.140 169.095,229.666 168.328,229.997 167.996 C 230.329 167.663,230.825 166.988,231.100 166.496 C 232.391 164.183,232.659 163.782,233.516 162.888 C 234.020 162.362,234.737 161.227,235.110 160.366 C 235.483 159.505,235.926 158.800,236.094 158.800 C 236.262 158.800,236.400 158.557,236.400 158.259 C 236.400 157.962,236.945 157.148,237.612 156.451 C 239.173 154.817,240.503 152.444,240.240 151.760 C 240.127 151.466,240.210 151.117,240.424 150.985 C 240.638 150.853,240.686 150.532,240.530 150.272 C 240.348 149.970,240.477 149.987,240.888 150.319 C 241.576 150.877,242.257 150.339,241.800 149.600 C 241.664 149.380,241.863 149.200,242.243 149.200 C 242.623 149.200,242.816 149.083,242.673 148.940 C 242.530 148.796,242.725 148.423,243.106 148.110 C 243.560 147.738,243.592 147.634,243.200 147.810 C 242.870 147.959,243.187 147.542,243.904 146.884 C 244.774 146.086,245.124 145.468,244.955 145.027 C 244.788 144.591,244.888 144.407,245.251 144.484 C 245.623 144.563,245.762 144.278,245.682 143.600 C 245.598 142.887,245.670 142.756,245.932 143.143 C 246.362 143.776,247.007 143.059,246.600 142.400 C 246.464 142.180,246.638 142.000,246.987 142.000 C 247.560 142.000,247.557 141.878,246.961 140.724 C 246.391 139.623,246.239 139.535,245.850 140.082 C 245.603 140.431,244.410 142.115,243.200 143.825 C 237.445 151.958,236.617 152.804,236.168 151.014 C 236.024 150.441,235.421 149.721,234.827 149.414 C 233.632 148.796,231.600 146.105,231.600 145.140 C 231.600 144.801,231.232 144.191,230.782 143.783 C 229.580 142.696,228.000 139.328,228.000 137.856 C 228.000 137.056,227.688 136.311,227.167 135.864 C 226.647 135.420,226.429 134.901,226.588 134.488 C 226.728 134.123,226.708 133.959,226.543 134.124 C 226.378 134.288,226.026 133.653,225.760 132.712 C 225.493 131.770,224.946 129.920,224.544 128.600 C 222.087 120.535,225.311 106.561,231.157 99.939 C 232.893 97.972,233.187 97.200,232.200 97.200 C 231.870 97.200,231.600 97.020,231.600 96.800 C 231.600 96.580,231.420 96.400,231.200 96.400 C 230.980 96.400,230.800 96.681,230.800 97.024 M247.673 137.800 C 247.422 138.350,247.365 138.800,247.547 138.800 C 248.075 138.800,249.228 137.361,248.934 137.068 C 248.459 136.593,248.138 136.779,247.673 137.800 M249.600 137.167 C 249.600 137.369,249.479 137.849,249.332 138.233 C 249.164 138.672,249.220 138.835,249.484 138.672 C 250.037 138.330,250.428 136.800,249.963 136.800 C 249.763 136.800,249.600 136.965,249.600 137.167 M142.900 139.185 C 141.602 140.831,141.793 141.135,143.200 139.663 C 143.860 138.972,144.400 138.316,144.400 138.204 C 144.400 137.698,143.724 138.140,142.900 139.185 M138.986 147.223 C 138.623 147.809,139.168 149.799,139.570 149.358 C 140.257 148.604,140.441 146.800,139.831 146.800 C 139.510 146.800,139.130 146.990,138.986 147.223 M137.301 150.600 C 137.305 151.480,137.387 151.793,137.483 151.295 C 137.579 150.798,137.575 150.078,137.475 149.695 C 137.375 149.313,137.296 149.720,137.301 150.600 M138.967 153.442 C 138.814 154.079,138.519 154.817,138.310 155.082 C 137.807 155.723,138.291 156.449,139.130 156.311 C 139.576 156.237,139.761 156.434,139.682 156.900 C 139.613 157.315,139.816 157.600,140.182 157.600 C 140.921 157.600,140.937 157.321,140.346 154.877 C 139.760 152.458,139.314 151.993,138.967 153.442 M140.689 158.244 C 140.243 158.690,140.345 160.481,140.800 160.200 C 141.020 160.064,141.200 160.151,141.200 160.393 C 141.200 160.984,142.732 162.602,143.019 162.314 C 143.285 162.048,142.335 159.725,141.532 158.678 C 141.227 158.280,140.848 158.085,140.689 158.244 M143.092 163.441 C 142.960 163.574,143.020 164.125,143.226 164.667 C 143.728 165.988,143.697 166.507,143.138 166.162 C 142.852 165.985,142.785 166.052,142.962 166.338 C 143.119 166.592,143.642 166.806,144.124 166.813 C 144.989 166.825,144.990 166.833,144.206 167.426 C 143.421 168.019,143.422 168.028,144.306 168.260 C 145.296 168.519,145.414 168.826,144.770 169.470 C 144.463 169.777,144.634 169.844,145.370 169.704 C 146.604 169.468,146.620 169.316,145.630 167.338 C 145.207 166.492,144.623 165.215,144.333 164.500 C 143.806 163.204,143.549 162.984,143.092 163.441 M147.600 174.224 C 147.600 174.593,147.412 174.731,147.138 174.562 C 146.866 174.393,146.784 174.451,146.940 174.703 C 147.085 174.937,147.517 175.083,147.902 175.027 C 148.791 174.897,149.089 173.600,148.229 173.600 C 147.883 173.600,147.600 173.881,147.600 174.224 M169.650 223.515 C 168.970 224.358,168.699 224.479,168.437 224.057 C 168.202 223.679,168.017 223.649,167.826 223.957 C 167.676 224.201,167.652 224.561,167.774 224.758 C 167.896 224.955,167.726 225.219,167.398 225.346 C 167.069 225.472,166.800 225.811,166.800 226.099 C 166.800 226.387,166.440 226.883,166.000 227.200 C 165.560 227.517,165.200 228.017,165.200 228.310 C 165.200 228.603,164.661 229.419,164.002 230.122 C 163.343 230.825,162.803 231.585,162.802 231.812 C 162.801 232.038,162.440 232.483,162.000 232.800 C 161.560 233.117,161.200 233.697,161.200 234.088 C 161.200 234.480,161.020 234.800,160.800 234.800 C 160.580 234.800,160.400 235.081,160.400 235.423 C 160.400 236.013,158.246 239.081,157.412 239.678 C 157.198 239.831,157.142 240.075,157.287 240.220 C 157.432 240.365,157.112 240.891,156.575 241.388 C 155.497 242.387,155.340 243.029,156.100 243.335 C 156.375 243.446,156.238 243.551,155.796 243.568 C 155.354 243.586,154.756 243.979,154.467 244.442 C 154.178 244.905,154.134 245.164,154.370 245.018 C 155.379 244.395,154.763 247.155,153.620 248.378 C 152.972 249.073,152.330 249.992,152.194 250.420 C 152.057 250.849,151.778 251.200,151.573 251.200 C 151.368 251.200,151.200 251.560,151.200 252.000 C 151.200 252.440,151.020 252.800,150.800 252.800 C 150.580 252.800,150.400 252.980,150.400 253.200 C 150.400 254.166,151.278 253.404,153.184 250.784 C 154.311 249.235,155.593 247.607,156.034 247.166 L 156.835 246.365 159.037 248.620 C 160.248 249.860,161.719 251.623,162.306 252.537 C 162.893 253.452,163.758 254.677,164.228 255.261 C 167.852 259.761,171.200 270.586,171.200 277.803 C 171.200 283.777,167.226 295.134,163.880 298.721 C 162.950 299.719,163.362 300.381,164.924 300.394 C 165.391 300.398,165.544 300.577,165.355 300.900 C 165.194 301.175,165.408 301.098,165.831 300.729 C 166.254 300.359,166.773 300.058,166.984 300.058 C 167.196 300.059,167.466 299.821,167.584 299.530 C 167.703 299.238,168.025 298.982,168.300 298.960 C 168.575 298.938,169.250 298.893,169.800 298.860 C 170.457 298.821,170.804 298.560,170.813 298.100 C 170.828 297.235,171.729 296.000,172.344 296.000 C 172.595 296.000,172.800 295.717,172.800 295.371 C 172.800 295.025,174.204 293.270,175.921 291.471 C 185.603 281.324,188.419 269.164,184.572 254.115 C 183.612 250.358,176.415 234.089,172.242 226.240 C 171.669 225.163,171.200 223.958,171.200 223.564 C 171.200 222.383,170.579 222.363,169.650 223.515 M148.870 255.622 C 148.358 256.270,148.041 256.800,148.167 256.800 C 148.545 256.800,150.400 255.079,150.400 254.728 C 150.400 254.098,149.793 254.453,148.870 255.622 M240.000 263.600 C 240.000 263.820,240.261 264.000,240.580 264.000 C 240.899 264.000,241.363 264.315,241.610 264.700 C 242.031 265.354,242.045 265.352,241.830 264.667 C 241.704 264.264,241.600 263.769,241.600 263.567 C 241.600 263.365,241.240 263.200,240.800 263.200 C 240.360 263.200,240.000 263.380,240.000 263.600 M233.454 266.602 C 232.824 266.931,232.059 267.200,231.754 267.200 C 231.449 267.200,231.200 267.380,231.200 267.600 C 231.200 267.820,231.367 268.000,231.571 268.000 C 231.776 268.000,232.235 268.292,232.591 268.648 C 233.189 269.246,233.219 269.215,232.976 268.248 C 232.669 267.025,233.215 266.875,234.249 267.900 C 234.922 268.567,234.942 268.565,234.671 267.849 C 234.514 267.436,234.591 266.851,234.842 266.549 C 235.436 265.834,234.887 265.855,233.454 266.602 M229.400 268.400 C 229.264 268.620,229.534 268.800,230.000 268.800 C 230.466 268.800,230.736 268.620,230.600 268.400 C 230.464 268.180,230.194 268.000,230.000 268.000 C 229.806 268.000,229.536 268.180,229.400 268.400 M227.600 269.200 C 227.600 269.420,227.870 269.600,228.200 269.600 C 228.530 269.600,228.800 269.420,228.800 269.200 C 228.800 268.980,228.530 268.800,228.200 268.800 C 227.870 268.800,227.600 268.980,227.600 269.200 M215.300 274.944 C 214.271 275.454,214.115 276.000,215.000 276.000 C 215.330 276.000,215.600 275.820,215.600 275.600 C 215.600 275.380,215.870 275.200,216.200 275.200 C 216.530 275.200,216.800 275.020,216.800 274.800 C 216.800 274.322,216.497 274.351,215.300 274.944 M190.600 286.800 C 190.464 287.020,190.723 287.200,191.176 287.200 C 191.629 287.200,192.000 287.020,192.000 286.800 C 192.000 286.580,191.741 286.400,191.424 286.400 C 191.107 286.400,190.736 286.580,190.600 286.800 " stroke="none" fill="#094c95" fill-rule="evenodd"></path></g></svg>