<svg xmlns="http://www.w3.org/2000/svg" width="1440" height="350"><defs><filter id="a" width="282.6%" height="322.8%" x="-91.3%" y="-111.4%" filterUnits="objectBoundingBox"><feGaussianBlur in="SourceGraphic" stdDeviation="50"/></filter></defs><path fill="#38BDF8" fill-opacity=".48" fill-rule="evenodd" d="m731.55 195.781-17.803 11.125c-2.646 9.932-8.922 18.921-18.326 24.797l-6.785 4.24c-19.67 12.292-45.582 6.31-57.874-13.362-12.292-19.67-6.31-45.582 13.361-57.874l6.785-4.24c9.447-5.903 20.334-7.591 30.46-5.573l16.846-10.526c2.527-10.226 8.879-19.519 18.517-25.542l7.633-4.769c19.67-12.292 45.582-6.31 57.874 13.362 12.292 19.67 6.31 45.582-13.361 57.874l-7.633 4.77c-9.21 5.754-19.786 7.504-29.693 5.718Z" filter="url(#a)"/></svg>